<?xml version="1.0" encoding="utf-8"?>
<!-- Generator: Adobe Illustrator 20.0.0, SVG Export Plug-In . SVG Version: 6.00 Build 0)  -->
<svg version="1.1" id="Layer_1" xmlns="http://www.w3.org/2000/svg" xmlns:xlink="http://www.w3.org/1999/xlink" x="0px" y="0px"
	 viewBox="0 0 659.8 598" style="enable-background:new 0 0 659.8 598;" xml:space="preserve">
<g>
	<rect x="123.7" y="61.8" width="20.6" height="20.6"/>
	<rect x="82.5" y="103.1" width="20.6" height="20.6"/>
	<rect x="103.1" y="82.5" width="20.6" height="20.6"/>
	<rect x="206.2" y="350.5" width="20.6" height="20.6"/>
	<rect x="82.4" y="474.3" width="20.6" height="20.6"/>
	<polygon points="206.2,329.9 206.2,309.3 206.2,288.7 206.2,268.1 206.2,247.5 185.6,247.5 185.6,268.1 185.6,288.7 185.6,309.3 
		185.6,329.9 185.6,350.5 206.2,350.5 	"/>
	<polygon points="41.2,391.8 41.2,371.2 20.6,371.2 20.6,391.8 20.6,412.4 20.6,433 41.2,433 41.2,412.4 	"/>
	<rect x="41.2" y="433" width="20.6" height="20.6"/>
	<polygon points="20.6,350.5 20.6,329.9 20.6,309.3 20.6,288.7 20.6,268.1 20.6,247.4 20.6,226.8 0,226.8 0,247.4 0,268.1 0,288.7 
		0,309.3 0,329.9 0,350.5 0,371.1 20.6,371.1 	"/>
	<polygon points="41.2,206.2 41.2,185.6 20.6,185.6 20.6,206.2 20.6,226.8 41.2,226.8 	"/>
	<polygon points="61.9,164.9 61.9,144.3 41.3,144.3 41.3,164.9 41.3,185.5 61.9,185.5 	"/>
	<rect x="61.9" y="123.7" width="20.6" height="20.6"/>
	<polygon points="185.5,61.8 185.5,41.2 164.9,41.2 144.3,41.2 144.3,61.8 164.9,61.8 	"/>
	<polygon points="412.4,226.8 412.4,206.2 391.8,206.2 371.2,206.2 371.2,226.8 391.8,226.8 	"/>
	<polygon points="433,268.1 433,288.7 453.6,288.7 453.6,268.1 453.6,247.5 433,247.5 	"/>
	<rect x="412.4" y="226.8" width="20.6" height="20.6"/>
	<polygon points="598,226.8 618.6,226.8 618.6,206.2 618.6,185.6 598,185.6 598,206.2 	"/>
	<polygon points="598,165 598,144.4 577.4,144.4 577.4,165 577.4,185.6 598,185.6 	"/>
	<rect x="206.2" y="226.8" width="20.6" height="20.6"/>
	<polygon points="288.7,20.6 309.3,20.6 329.9,20.6 350.5,20.6 371.1,20.6 371.1,0 350.5,0 329.9,0 309.3,0 288.7,0 268.1,0 
		247.5,0 247.5,20.6 268.1,20.6 	"/>
	<polygon points="226.8,41.2 247.4,41.2 247.4,20.6 226.8,20.6 206.2,20.6 185.6,20.6 185.6,41.2 206.2,41.2 	"/>
	<rect x="226.8" y="206.2" width="20.6" height="20.6"/>
	<polygon points="288.7,350.5 288.7,371.1 309.3,371.1 309.3,350.5 309.3,329.9 288.7,329.9 	"/>
	<polygon points="288.7,206.2 309.3,206.2 329.9,206.2 350.5,206.2 371.1,206.2 371.1,185.6 350.5,185.6 329.9,185.6 309.3,185.6 
		288.7,185.6 268.1,185.6 247.5,185.6 247.5,206.2 268.1,206.2 	"/>
	<polygon points="494.9,61.9 474.3,61.9 474.3,82.5 494.9,82.5 515.5,82.5 515.5,61.9 	"/>
	<rect x="515.5" y="82.5" width="20.6" height="20.6"/>
	<rect x="556.7" y="123.7" width="20.6" height="20.6"/>
	<rect x="556.8" y="577.4" width="20.6" height="20.6"/>
	<polygon points="412.4,20.6 391.8,20.6 371.2,20.6 371.2,41.2 391.8,41.2 412.4,41.2 433,41.2 433,20.6 	"/>
	<rect x="536.1" y="103.1" width="20.6" height="20.6"/>
	<polygon points="433,41.2 433,61.8 453.6,61.8 474.2,61.8 474.2,41.2 453.6,41.2 	"/>
	<polygon points="618.6,453.7 618.6,474.3 618.6,494.9 639.2,494.9 639.2,474.3 639.2,453.7 639.2,433.1 618.6,433.1 	"/>
	<polygon points="639.2,288.8 639.2,309.4 639.2,330 639.2,350.6 639.2,371.2 639.2,391.8 639.2,412.4 639.2,433 659.8,433 
		659.8,412.4 659.8,391.8 659.8,371.2 659.8,350.6 659.8,330 659.8,309.4 659.8,288.8 	"/>
	<polygon points="577.4,556.7 577.4,577.3 598,577.3 598,556.8 598,536.1 577.4,536.1 	"/>
	<polygon points="639.2,268.1 639.2,247.5 639.2,226.9 618.6,226.9 618.6,247.5 618.6,268.1 618.6,288.7 639.2,288.7 	"/>
	<polygon points="598,515.5 598,536.1 618.6,536.1 618.6,515.5 618.6,494.9 598,494.9 	"/>
	<rect x="412.4" y="474.3" width="20.6" height="20.6"/>
	<polygon points="247.4,556.8 226.8,556.8 226.8,577.4 247.4,577.4 268,577.4 288.6,577.4 288.6,556.8 268,556.8 	"/>
	<polygon points="247.4,371.2 226.8,371.2 226.8,391.8 247.4,391.8 268,391.8 288.6,391.8 288.6,371.2 268,371.2 	"/>
	<polygon points="185.5,536.1 164.9,536.1 164.9,556.7 185.5,556.7 206.1,556.7 226.7,556.7 226.7,536.1 206.1,536.1 	"/>
	<polygon points="144.3,515.5 123.7,515.5 123.7,536.1 144.3,536.1 164.9,536.1 164.9,515.5 	"/>
	<rect x="103.1" y="494.9" width="20.6" height="20.6"/>
	<polygon points="350.5,515.5 350.5,536.1 329.9,536.1 309.3,536.1 288.7,536.1 288.7,556.7 309.3,556.7 329.9,556.7 350.5,556.7 
		350.5,536.1 371.1,536.1 391.7,536.1 391.7,515.5 371.1,515.5 	"/>
	<polygon points="433,453.7 433,474.3 453.6,474.3 453.6,453.7 453.6,433.1 433,433.1 	"/>
	<rect x="61.8" y="453.7" width="20.6" height="20.6"/>
	<rect x="391.8" y="494.9" width="20.6" height="20.6"/>
	<polygon points="453.6,309.4 453.6,330 453.6,350.6 453.6,371.2 453.6,391.8 453.6,412.4 453.6,433 474.2,433 474.2,412.4 
		474.2,391.8 474.2,371.2 474.2,350.6 474.2,330 474.2,309.4 474.2,288.8 453.6,288.8 	"/>
	<rect x="268" y="309.3" width="20.6" height="20.6"/>
</g>
</svg>
